<svg width="480" height="480" viewBox="0 0 480 480" fill="none" xmlns="http://www.w3.org/2000/svg">
<g clip-path="url(#clip0_225_12720)">
<path d="M355.565 0.000976562H124.435C55.7115 0.000976562 0 55.7125 0 124.436V355.566C0 424.289 55.7115 480.001 124.435 480.001H355.565C424.288 480.001 480 424.289 480 355.566V124.436C480 55.7125 424.288 0.000976562 355.565 0.000976562Z" fill="#FFD700"/>
<path d="M200.966 123.771H162.369C151.607 123.771 142.883 132.496 142.883 143.257V181.855C142.883 192.617 151.607 201.341 162.369 201.341H200.966C211.728 201.341 220.452 192.617 220.452 181.855V143.257C220.452 132.496 211.728 123.771 200.966 123.771Z" fill="#121212"/>
<path d="M336.858 181.814V182.063C336.858 192.7 345.5 201.341 356.136 201.341H395.191C405.827 201.341 414.469 209.983 414.469 220.62V220.869C414.469 231.505 405.827 240.147 395.191 240.147H356.136C345.5 240.147 336.858 248.789 336.858 259.425V336.995C336.858 347.631 328.216 356.273 317.58 356.273H239.72C229.083 356.273 220.441 347.631 220.441 336.995V298.189C220.441 287.553 211.8 278.911 201.163 278.911H162.358C151.722 278.911 143.08 287.553 143.08 298.189V336.995C143.08 347.631 134.438 356.273 123.802 356.273H84.7469C74.1107 356.273 65.4688 347.631 65.4688 336.995V298.189C65.4688 287.553 74.1107 278.911 84.7469 278.911H84.9961C95.6323 278.911 104.274 270.269 104.274 259.633V220.578C104.274 209.942 112.916 201.3 123.552 201.3C134.189 201.3 142.83 209.942 142.83 220.578V220.827C142.83 231.464 151.472 240.105 162.109 240.105H201.163C211.8 240.105 220.441 231.464 220.441 220.827V220.578C220.441 209.942 229.083 201.3 239.72 201.3H239.969C250.605 201.3 259.247 209.942 259.247 220.578V259.633C259.247 270.269 267.889 278.911 278.525 278.911H278.774C289.411 278.911 298.052 270.269 298.052 259.633V143.009C298.052 132.372 306.694 123.73 317.331 123.73H395.191C405.827 123.73 414.469 132.372 414.469 143.009V143.258C414.469 153.894 405.827 162.536 395.191 162.536H356.136C345.5 162.536 336.858 171.178 336.858 181.814Z" fill="#121212"/>
</g>
<defs>
<clipPath id="clip0_225_12720">
<rect width="480" height="480" fill="white"/>
</clipPath>
</defs>
</svg>
